G04 PROTEUS RS274X GERBER FILE*
%FSLAX45Y45*%
%MOMM*%
G01*
%ADD14C,0.203200*%
%ADD15C,0.127000*%
%ADD16C,0.063500*%
D14*
X+7161500Y+5064500D02*
X+7161500Y+4937500D01*
X+7225000Y+5001000D02*
X+7098000Y+5001000D01*
X+6907500Y+5064500D02*
X+6907500Y+4937500D01*
X+6971000Y+5001000D02*
X+6844000Y+5001000D01*
X+6653500Y+5064500D02*
X+6653500Y+4937500D01*
X+6717000Y+5001000D02*
X+6590000Y+5001000D01*
X+7161500Y+4493000D02*
X+7161500Y+4366000D01*
X+7225000Y+4429500D02*
X+7098000Y+4429500D01*
X+6907500Y+4493000D02*
X+6907500Y+4366000D01*
X+6971000Y+4429500D02*
X+6844000Y+4429500D01*
X+6653500Y+4493000D02*
X+6653500Y+4366000D01*
X+6717000Y+4429500D02*
X+6590000Y+4429500D01*
X+7161500Y+3921500D02*
X+7161500Y+3794500D01*
X+7225000Y+3858000D02*
X+7098000Y+3858000D01*
X+6907500Y+3921500D02*
X+6907500Y+3794500D01*
X+6971000Y+3858000D02*
X+6844000Y+3858000D01*
X+6653500Y+3921500D02*
X+6653500Y+3794500D01*
X+6717000Y+3858000D02*
X+6590000Y+3858000D01*
X+7161500Y+3413500D02*
X+7161500Y+3286500D01*
X+7225000Y+3350000D02*
X+7098000Y+3350000D01*
X+6907500Y+3413500D02*
X+6907500Y+3286500D01*
X+6971000Y+3350000D02*
X+6844000Y+3350000D01*
X+6653500Y+3413500D02*
X+6653500Y+3286500D01*
X+6717000Y+3350000D02*
X+6590000Y+3350000D01*
X+7161500Y+2905500D02*
X+7161500Y+2778500D01*
X+7225000Y+2842000D02*
X+7098000Y+2842000D01*
X+6907500Y+2905500D02*
X+6907500Y+2778500D01*
X+6971000Y+2842000D02*
X+6844000Y+2842000D01*
X+6653500Y+2905500D02*
X+6653500Y+2778500D01*
X+6717000Y+2842000D02*
X+6590000Y+2842000D01*
X+5129500Y+5191500D02*
X+5129500Y+5064500D01*
X+5193000Y+5128000D02*
X+5066000Y+5128000D01*
X+5129500Y+2651500D02*
X+5129500Y+2524500D01*
X+5193000Y+2588000D02*
X+5066000Y+2588000D01*
X+5129500Y+4683500D02*
X+5129500Y+4556500D01*
X+5193000Y+4620000D02*
X+5066000Y+4620000D01*
X+5129500Y+4429500D02*
X+5129500Y+4302500D01*
X+5193000Y+4366000D02*
X+5066000Y+4366000D01*
X+5129500Y+4175500D02*
X+5129500Y+4048500D01*
X+5193000Y+4112000D02*
X+5066000Y+4112000D01*
X+5129500Y+3921500D02*
X+5129500Y+3794500D01*
X+5193000Y+3858000D02*
X+5066000Y+3858000D01*
X+5129500Y+3667500D02*
X+5129500Y+3540500D01*
X+5193000Y+3604000D02*
X+5066000Y+3604000D01*
X+5129500Y+3413500D02*
X+5129500Y+3286500D01*
X+5193000Y+3350000D02*
X+5066000Y+3350000D01*
X+5129500Y+3159500D02*
X+5129500Y+3032500D01*
X+5193000Y+3096000D02*
X+5066000Y+3096000D01*
X+5129500Y+2905500D02*
X+5129500Y+2778500D01*
X+5193000Y+2842000D02*
X+5066000Y+2842000D01*
X+3656300Y+2905500D02*
X+3656300Y+2778500D01*
X+3719800Y+2842000D02*
X+3592800Y+2842000D01*
X+3656300Y+3159500D02*
X+3656300Y+3032500D01*
X+3719800Y+3096000D02*
X+3592800Y+3096000D01*
X+3656300Y+3413500D02*
X+3656300Y+3286500D01*
X+3719800Y+3350000D02*
X+3592800Y+3350000D01*
X+3656300Y+3667500D02*
X+3656300Y+3540500D01*
X+3719800Y+3604000D02*
X+3592800Y+3604000D01*
X+3656300Y+3921500D02*
X+3656300Y+3794500D01*
X+3719800Y+3858000D02*
X+3592800Y+3858000D01*
X+3656300Y+4175500D02*
X+3656300Y+4048500D01*
X+3719800Y+4112000D02*
X+3592800Y+4112000D01*
X+3656300Y+4429500D02*
X+3656300Y+4302500D01*
X+3719800Y+4366000D02*
X+3592800Y+4366000D01*
X+3656300Y+4683500D02*
X+3656300Y+4556500D01*
X+3719800Y+4620000D02*
X+3592800Y+4620000D01*
X+3656300Y+4937500D02*
X+3656300Y+4810500D01*
X+3719800Y+4874000D02*
X+3592800Y+4874000D01*
X+3656300Y+5191500D02*
X+3656300Y+5064500D01*
X+3719800Y+5128000D02*
X+3592800Y+5128000D01*
X+3656300Y+5445500D02*
X+3656300Y+5318500D01*
X+3719800Y+5382000D02*
X+3592800Y+5382000D01*
X+5129500Y+5445500D02*
X+5129500Y+5318500D01*
X+5193000Y+5382000D02*
X+5066000Y+5382000D01*
X+3656300Y+2651500D02*
X+3656300Y+2524500D01*
X+3719800Y+2588000D02*
X+3592800Y+2588000D01*
X+5129500Y+2143500D02*
X+5129500Y+2016500D01*
X+5193000Y+2080000D02*
X+5066000Y+2080000D01*
X+5129500Y+4937500D02*
X+5129500Y+4810500D01*
X+5193000Y+4874000D02*
X+5066000Y+4874000D01*
X+3656300Y+2397500D02*
X+3656300Y+2270500D01*
X+3719800Y+2334000D02*
X+3592800Y+2334000D01*
X+5129500Y+2397500D02*
X+5129500Y+2270500D01*
X+5193000Y+2334000D02*
X+5066000Y+2334000D01*
X+3656300Y+2143500D02*
X+3656300Y+2016500D01*
X+3719800Y+2080000D02*
X+3592800Y+2080000D01*
X+3656300Y+1889500D02*
X+3656300Y+1762500D01*
X+3719800Y+1826000D02*
X+3592800Y+1826000D01*
X+5129500Y+1889500D02*
X+5129500Y+1762500D01*
X+5193000Y+1826000D02*
X+5066000Y+1826000D01*
X+5129500Y+6652000D02*
X+5129500Y+6525000D01*
X+5193000Y+6588500D02*
X+5066000Y+6588500D01*
X+5129500Y+6906000D02*
X+5129500Y+6779000D01*
X+5193000Y+6842500D02*
X+5066000Y+6842500D01*
X+4304000Y+492500D02*
X+4304000Y+365500D01*
X+4367500Y+429000D02*
X+4240500Y+429000D01*
X+4304000Y+746500D02*
X+4304000Y+619500D01*
X+4367500Y+683000D02*
X+4240500Y+683000D01*
X+3605500Y+492500D02*
X+3605500Y+365500D01*
X+3669000Y+429000D02*
X+3542000Y+429000D01*
X+3605500Y+746500D02*
X+3605500Y+619500D01*
X+3669000Y+683000D02*
X+3542000Y+683000D01*
X+3605500Y+1000500D02*
X+3605500Y+873500D01*
X+3669000Y+937000D02*
X+3542000Y+937000D01*
X+4240500Y+6652000D02*
X+4240500Y+6525000D01*
X+4304000Y+6588500D02*
X+4177000Y+6588500D01*
X+4240500Y+6906000D02*
X+4240500Y+6779000D01*
X+4304000Y+6842500D02*
X+4177000Y+6842500D01*
X+4240500Y+7160000D02*
X+4240500Y+7033000D01*
X+4304000Y+7096500D02*
X+4177000Y+7096500D01*
X+2399000Y+3731000D02*
X+2399000Y+3604000D01*
X+2462500Y+3667500D02*
X+2335500Y+3667500D01*
X+1129000Y+3731000D02*
X+1129000Y+3604000D01*
X+1192500Y+3667500D02*
X+1065500Y+3667500D01*
X+2399000Y+2969000D02*
X+2399000Y+2842000D01*
X+2462500Y+2905500D02*
X+2335500Y+2905500D01*
X+2399000Y+3223000D02*
X+2399000Y+3096000D01*
X+2462500Y+3159500D02*
X+2335500Y+3159500D01*
X+2399000Y+3477000D02*
X+2399000Y+3350000D01*
X+2462500Y+3413500D02*
X+2335500Y+3413500D01*
X+1129000Y+3223000D02*
X+1129000Y+3096000D01*
X+1192500Y+3159500D02*
X+1065500Y+3159500D01*
X+1129000Y+3477000D02*
X+1129000Y+3350000D01*
X+1192500Y+3413500D02*
X+1065500Y+3413500D01*
X+1129000Y+2969000D02*
X+1129000Y+2842000D01*
X+1192500Y+2905500D02*
X+1065500Y+2905500D01*
X+2399000Y+4810500D02*
X+2399000Y+4683500D01*
X+2462500Y+4747000D02*
X+2335500Y+4747000D01*
X+1129000Y+4810500D02*
X+1129000Y+4683500D01*
X+1192500Y+4747000D02*
X+1065500Y+4747000D01*
X+2399000Y+4048500D02*
X+2399000Y+3921500D01*
X+2462500Y+3985000D02*
X+2335500Y+3985000D01*
X+2399000Y+4302500D02*
X+2399000Y+4175500D01*
X+2462500Y+4239000D02*
X+2335500Y+4239000D01*
X+2399000Y+4556500D02*
X+2399000Y+4429500D01*
X+2462500Y+4493000D02*
X+2335500Y+4493000D01*
X+1129000Y+4302500D02*
X+1129000Y+4175500D01*
X+1192500Y+4239000D02*
X+1065500Y+4239000D01*
X+1129000Y+4556500D02*
X+1129000Y+4429500D01*
X+1192500Y+4493000D02*
X+1065500Y+4493000D01*
X+1129000Y+4048500D02*
X+1129000Y+3921500D01*
X+1192500Y+3985000D02*
X+1065500Y+3985000D01*
X+1491401Y+2251901D02*
X+1401599Y+2162099D01*
X+1491401Y+2162099D02*
X+1401599Y+2251901D01*
X+1999401Y+2251901D02*
X+1909599Y+2162099D01*
X+1999401Y+2162099D02*
X+1909599Y+2251901D01*
X+1065500Y+1635500D02*
X+1065500Y+1508500D01*
X+1129000Y+1572000D02*
X+1002000Y+1572000D01*
X+1065500Y+1381500D02*
X+1065500Y+1254500D01*
X+1129000Y+1318000D02*
X+1002000Y+1318000D01*
X+2462500Y+1635500D02*
X+2462500Y+1508500D01*
X+2526000Y+1572000D02*
X+2399000Y+1572000D01*
X+2462500Y+1381500D02*
X+2462500Y+1254500D01*
X+2526000Y+1318000D02*
X+2399000Y+1318000D01*
X+1827500Y+1635500D02*
X+1827500Y+1508500D01*
X+1891000Y+1572000D02*
X+1764000Y+1572000D01*
X+1573500Y+1635500D02*
X+1573500Y+1508500D01*
X+1637000Y+1572000D02*
X+1510000Y+1572000D01*
X+1554901Y+5426901D02*
X+1465099Y+5337099D01*
X+1554901Y+5337099D02*
X+1465099Y+5426901D01*
X+2062901Y+5426901D02*
X+1973099Y+5337099D01*
X+2062901Y+5337099D02*
X+1973099Y+5426901D01*
X+1129000Y+6144000D02*
X+1129000Y+6017000D01*
X+1192500Y+6080500D02*
X+1065500Y+6080500D01*
X+1129000Y+5890000D02*
X+1129000Y+5763000D01*
X+1192500Y+5826500D02*
X+1065500Y+5826500D01*
X+2399000Y+6144000D02*
X+2399000Y+6017000D01*
X+2462500Y+6080500D02*
X+2335500Y+6080500D01*
X+2399000Y+5890000D02*
X+2399000Y+5763000D01*
X+2462500Y+5826500D02*
X+2335500Y+5826500D01*
X+1637000Y+5826500D02*
X+1637000Y+5699500D01*
X+1700500Y+5763000D02*
X+1573500Y+5763000D01*
X+1891000Y+5826500D02*
X+1891000Y+5699500D01*
X+1954500Y+5763000D02*
X+1827500Y+5763000D01*
X+4180000Y+4053500D02*
X+4180000Y+3926500D01*
X+4243500Y+3990000D02*
X+4116500Y+3990000D01*
X+4434000Y+4053500D02*
X+4434000Y+3926500D01*
X+4497500Y+3990000D02*
X+4370500Y+3990000D01*
X+4684000Y+3263500D02*
X+4684000Y+3136500D01*
X+4747500Y+3200000D02*
X+4620500Y+3200000D01*
X+4430000Y+3263500D02*
X+4430000Y+3136500D01*
X+4493500Y+3200000D02*
X+4366500Y+3200000D01*
X+4177000Y+2651500D02*
X+4177000Y+2524500D01*
X+4240500Y+2588000D02*
X+4113500Y+2588000D01*
X+4431000Y+2651500D02*
X+4431000Y+2524500D01*
X+4494500Y+2588000D02*
X+4367500Y+2588000D01*
X+4685000Y+2651500D02*
X+4685000Y+2524500D01*
X+4748500Y+2588000D02*
X+4621500Y+2588000D01*
X+6653500Y+5699500D02*
X+6653500Y+5572500D01*
X+6717000Y+5636000D02*
X+6590000Y+5636000D01*
X+6907500Y+5699500D02*
X+6907500Y+5572500D01*
X+6971000Y+5636000D02*
X+6844000Y+5636000D01*
X+7161500Y+5699500D02*
X+7161500Y+5572500D01*
X+7225000Y+5636000D02*
X+7098000Y+5636000D01*
X+6653500Y+2397500D02*
X+6653500Y+2270500D01*
X+6717000Y+2334000D02*
X+6590000Y+2334000D01*
X+6907500Y+2397500D02*
X+6907500Y+2270500D01*
X+6971000Y+2334000D02*
X+6844000Y+2334000D01*
X+7161500Y+2397500D02*
X+7161500Y+2270500D01*
X+7225000Y+2334000D02*
X+7098000Y+2334000D01*
X+5500000Y+6013500D02*
X+5500000Y+5886500D01*
X+5563500Y+5950000D02*
X+5436500Y+5950000D01*
X+5754000Y+6013500D02*
X+5754000Y+5886500D01*
X+5817500Y+5950000D02*
X+5690500Y+5950000D01*
X+5246000Y+6013500D02*
X+5246000Y+5886500D01*
X+5309500Y+5950000D02*
X+5182500Y+5950000D01*
D15*
X+5204520Y-1000160D02*
X+7848660Y-1000160D01*
X+7848660Y-238160D01*
X+5204520Y-238160D01*
X+5204520Y-1000160D01*
D16*
X+7381298Y-238160D02*
X+7381298Y-1000160D01*
X+6568498Y-238160D02*
X+6568498Y-1000160D01*
X+5735378Y-238160D02*
X+5735378Y-1000160D01*
X+7848660Y-511210D02*
X+5204520Y-511210D01*
X+7848660Y-752510D02*
X+5204520Y-752510D01*
D15*
X+7425750Y-401990D02*
X+7440990Y-417230D01*
X+7501950Y-417230D01*
X+7517190Y-401990D01*
X+7517190Y-386750D01*
X+7501950Y-371510D01*
X+7440990Y-371510D01*
X+7425750Y-356270D01*
X+7425750Y-341030D01*
X+7440990Y-325790D01*
X+7501950Y-325790D01*
X+7517190Y-341030D01*
X+7639110Y-325790D02*
X+7547670Y-417230D01*
X+7547670Y-325790D02*
X+7593390Y-371510D01*
X+7669590Y-417230D02*
X+7669590Y-325790D01*
X+7715310Y-371510D01*
X+7761030Y-325790D01*
X+7761030Y-417230D01*
X+6836470Y-401990D02*
X+6851710Y-417230D01*
X+6912670Y-417230D01*
X+6927910Y-401990D01*
X+6927910Y-386750D01*
X+6912670Y-371510D01*
X+6851710Y-371510D01*
X+6836470Y-356270D01*
X+6836470Y-341030D01*
X+6851710Y-325790D01*
X+6912670Y-325790D01*
X+6927910Y-341030D01*
X+6973630Y-325790D02*
X+7034590Y-325790D01*
X+7004110Y-325790D02*
X+7004110Y-417230D01*
X+6973630Y-417230D02*
X+7034590Y-417230D01*
X+7080310Y-325790D02*
X+7171750Y-325790D01*
X+7080310Y-417230D01*
X+7171750Y-417230D01*
X+7293670Y-417230D02*
X+7202230Y-417230D01*
X+7202230Y-325790D01*
X+7293670Y-325790D01*
X+7202230Y-371510D02*
X+7263190Y-371510D01*
X+5779830Y-417230D02*
X+5779830Y-325790D01*
X+5856030Y-325790D01*
X+5871270Y-341030D01*
X+5871270Y-356270D01*
X+5856030Y-371510D01*
X+5779830Y-371510D01*
X+5901750Y-325790D02*
X+5901750Y-417230D01*
X+5993190Y-417230D01*
X+6023670Y-417230D02*
X+6023670Y-356270D01*
X+6054150Y-325790D01*
X+6084630Y-325790D01*
X+6115110Y-356270D01*
X+6115110Y-417230D01*
X+6023670Y-386750D02*
X+6115110Y-386750D01*
X+6145590Y-325790D02*
X+6237030Y-325790D01*
X+6191310Y-325790D02*
X+6191310Y-417230D01*
X+6358950Y-417230D02*
X+6267510Y-417230D01*
X+6267510Y-325790D01*
X+6358950Y-325790D01*
X+6267510Y-371510D02*
X+6328470Y-371510D01*
X+6389430Y-417230D02*
X+6389430Y-325790D01*
X+6450390Y-325790D01*
X+6480870Y-356270D01*
X+6480870Y-386750D01*
X+6450390Y-417230D01*
X+6389430Y-417230D01*
X+5312470Y-356270D02*
X+5342950Y-325790D01*
X+5373430Y-325790D01*
X+5403910Y-356270D01*
X+5403910Y-386750D01*
X+5373430Y-417230D01*
X+5342950Y-417230D01*
X+5312470Y-386750D01*
X+5312470Y-356270D01*
X+5373430Y-386750D02*
X+5403910Y-417230D01*
X+5434390Y-325790D02*
X+5525830Y-325790D01*
X+5480110Y-325790D02*
X+5480110Y-417230D01*
X+5647750Y-325790D02*
X+5556310Y-417230D01*
X+5556310Y-325790D02*
X+5602030Y-371510D01*
D14*
X+7602280Y-562010D02*
X+7602280Y-689010D01*
X+7665780Y-625510D02*
X+7538780Y-625510D01*
D15*
X+6619300Y-612810D02*
X+6644700Y-587410D01*
X+6644700Y-663610D01*
X+6733600Y-650910D02*
X+6746300Y-650910D01*
X+6746300Y-663610D01*
X+6733600Y-663610D01*
X+6733600Y-650910D01*
X+6797100Y-650910D02*
X+6797100Y-600110D01*
X+6809800Y-587410D01*
X+6860600Y-587410D01*
X+6873300Y-600110D01*
X+6873300Y-650910D01*
X+6860600Y-663610D01*
X+6809800Y-663610D01*
X+6797100Y-650910D01*
X+6797100Y-663610D02*
X+6873300Y-587410D01*
X+6924100Y-612810D02*
X+6949500Y-587410D01*
X+6949500Y-663610D01*
X+7076500Y-600110D02*
X+7063800Y-587410D01*
X+7025700Y-587410D01*
X+7013000Y-600110D01*
X+7013000Y-650910D01*
X+7025700Y-663610D01*
X+7063800Y-663610D01*
X+7076500Y-650910D01*
X+7076500Y-638210D01*
X+7063800Y-625510D01*
X+7013000Y-625510D01*
X+7101900Y-663610D02*
X+7101900Y-612810D01*
X+7101900Y-625510D02*
X+7114600Y-612810D01*
X+7140000Y-638210D01*
X+7165400Y-612810D01*
X+7178100Y-625510D01*
X+7178100Y-663610D01*
X+7203500Y-663610D02*
X+7203500Y-612810D01*
X+7203500Y-625510D02*
X+7216200Y-612810D01*
X+7241600Y-638210D01*
X+7267000Y-612810D01*
X+7279700Y-625510D01*
X+7279700Y-663610D01*
X+6251000Y-587410D02*
X+6174800Y-663610D01*
X+6174800Y-587410D02*
X+6212900Y-625510D01*
X+6352600Y-663610D02*
X+6276400Y-663610D01*
X+6276400Y-587410D01*
X+6352600Y-587410D01*
X+6276400Y-625510D02*
X+6327200Y-625510D01*
X+6378000Y-650910D02*
X+6390700Y-663610D01*
X+6441500Y-663610D01*
X+6454200Y-650910D01*
X+6454200Y-638210D01*
X+6441500Y-625510D01*
X+6390700Y-625510D01*
X+6378000Y-612810D01*
X+6378000Y-600110D01*
X+6390700Y-587410D01*
X+6441500Y-587410D01*
X+6454200Y-600110D01*
X+5506780Y-612810D02*
X+5494080Y-625510D01*
X+5455980Y-625510D01*
X+5443280Y-612810D01*
X+5443280Y-600110D01*
X+5455980Y-587410D01*
X+5494080Y-587410D01*
X+5506780Y-600110D01*
X+5506780Y-650910D01*
X+5494080Y-663610D01*
X+5455980Y-663610D01*
X+5608380Y-612810D02*
X+5595680Y-625510D01*
X+5557580Y-625510D01*
X+5544880Y-612810D01*
X+5544880Y-600110D01*
X+5557580Y-587410D01*
X+5595680Y-587410D01*
X+5608380Y-600110D01*
X+5608380Y-650910D01*
X+5595680Y-663610D01*
X+5557580Y-663610D01*
D14*
X+7647181Y-821909D02*
X+7557379Y-911711D01*
X+7647181Y-911711D02*
X+7557379Y-821909D01*
D15*
X+6720900Y-854110D02*
X+6746300Y-828710D01*
X+6746300Y-904910D01*
X+6835200Y-892210D02*
X+6847900Y-892210D01*
X+6847900Y-904910D01*
X+6835200Y-904910D01*
X+6835200Y-892210D01*
X+6911400Y-841410D02*
X+6924100Y-828710D01*
X+6962200Y-828710D01*
X+6974900Y-841410D01*
X+6974900Y-854110D01*
X+6962200Y-866810D01*
X+6924100Y-866810D01*
X+6911400Y-879510D01*
X+6911400Y-904910D01*
X+6974900Y-904910D01*
X+7013000Y-828710D02*
X+7076500Y-828710D01*
X+7076500Y-841410D01*
X+7013000Y-904910D01*
X+7101900Y-904910D02*
X+7101900Y-854110D01*
X+7101900Y-866810D02*
X+7114600Y-854110D01*
X+7140000Y-879510D01*
X+7165400Y-854110D01*
X+7178100Y-866810D01*
X+7178100Y-904910D01*
X+7203500Y-904910D02*
X+7203500Y-854110D01*
X+7203500Y-866810D02*
X+7216200Y-854110D01*
X+7241600Y-879510D01*
X+7267000Y-854110D01*
X+7279700Y-866810D01*
X+7279700Y-904910D01*
X+6251000Y-828710D02*
X+6174800Y-904910D01*
X+6174800Y-828710D02*
X+6212900Y-866810D01*
X+6352600Y-904910D02*
X+6276400Y-904910D01*
X+6276400Y-828710D01*
X+6352600Y-828710D01*
X+6276400Y-866810D02*
X+6327200Y-866810D01*
X+6378000Y-892210D02*
X+6390700Y-904910D01*
X+6441500Y-904910D01*
X+6454200Y-892210D01*
X+6454200Y-879510D01*
X+6441500Y-866810D01*
X+6390700Y-866810D01*
X+6378000Y-854110D01*
X+6378000Y-841410D01*
X+6390700Y-828710D01*
X+6441500Y-828710D01*
X+6454200Y-841410D01*
X+5608380Y-879510D02*
X+5532180Y-879510D01*
X+5582980Y-828710D01*
X+5582980Y-904910D01*
M02*
