M48
METRIC,TZ
T01C1.0160
T02C1.2700
%
T01
X+71615Y+50010
X+69075Y+50010
X+66535Y+50010
X+71615Y+44295
X+69075Y+44295
X+66535Y+44295
X+71615Y+38580
X+69075Y+38580
X+66535Y+38580
X+71615Y+33500
X+69075Y+33500
X+66535Y+33500
X+71615Y+28420
X+69075Y+28420
X+66535Y+28420
X+51295Y+51280
X+51295Y+25880
X+51295Y+46200
X+51295Y+43660
X+51295Y+41120
X+51295Y+38580
X+51295Y+36040
X+51295Y+33500
X+51295Y+30960
X+51295Y+28420
X+36563Y+28420
X+36563Y+30960
X+36563Y+33500
X+36563Y+36040
X+36563Y+38580
X+36563Y+41120
X+36563Y+43660
X+36563Y+46200
X+36563Y+48740
X+36563Y+51280
X+36563Y+53820
X+51295Y+53820
X+36563Y+25880
X+51295Y+20800
X+51295Y+48740
X+36563Y+23340
X+51295Y+23340
X+36563Y+20800
X+36563Y+18260
X+51295Y+18260
X+51295Y+65885
X+51295Y+68425
X+43040Y+4290
X+43040Y+6830
X+36055Y+4290
X+36055Y+6830
X+36055Y+9370
X+42405Y+65885
X+42405Y+68425
X+42405Y+70965
X+23990Y+36675
X+11290Y+36675
X+23990Y+29055
X+23990Y+31595
X+23990Y+34135
X+11290Y+31595
X+11290Y+34135
X+11290Y+29055
X+23990Y+47470
X+11290Y+47470
X+23990Y+39850
X+23990Y+42390
X+23990Y+44930
X+11290Y+42390
X+11290Y+44930
X+11290Y+39850
X+10655Y+15720
X+10655Y+13180
X+24625Y+15720
X+24625Y+13180
X+18275Y+15720
X+15735Y+15720
X+11290Y+60805
X+11290Y+58265
X+23990Y+60805
X+23990Y+58265
X+16370Y+57630
X+18910Y+57630
X+41800Y+39900
X+44340Y+39900
X+46840Y+32000
X+44300Y+32000
X+41770Y+25880
X+44310Y+25880
X+46850Y+25880
X+66535Y+56360
X+69075Y+56360
X+71615Y+56360
X+66535Y+23340
X+69075Y+23340
X+71615Y+23340
X+55000Y+59500
X+57540Y+59500
X+52460Y+59500
T02
X+14465Y+22070
X+19545Y+22070
X+15100Y+53820
X+20180Y+53820
M30
