M48
METRIC,TZ
T01C1.0160
T02C1.5240
%
T01
X+71730Y+38710
X+71730Y+13310
X+71730Y+33630
X+71730Y+31090
X+71730Y+28550
X+71730Y+26010
X+71730Y+23470
X+71730Y+20930
X+71730Y+18390
X+71730Y+15850
X+56998Y+15850
X+56998Y+18390
X+56998Y+20930
X+56998Y+23470
X+56998Y+26010
X+56998Y+28550
X+56998Y+31090
X+56998Y+33630
X+56998Y+36170
X+56998Y+38710
X+56998Y+41250
X+71730Y+41250
X+56998Y+13310
X+71730Y+8230
X+71730Y+36170
X+56998Y+10770
X+71730Y+10770
X+56998Y+8230
X+56998Y+5690
X+71730Y+5690
X+42520Y+12040
X+42520Y+9500
X+42520Y+6960
X+42520Y+14580
X+78080Y+31090
X+80620Y+31090
X+83160Y+31090
X+78080Y+33630
X+80620Y+33630
X+83160Y+33630
X+50140Y+38710
X+47600Y+38710
X+45060Y+38710
X+50140Y+36170
X+47600Y+36170
X+45060Y+36170
X+60325Y+18415
X+65405Y+18415
X+62865Y+18415
X+67945Y+18415
X+61570Y+43790
X+64110Y+43790
X+66650Y+43790
X+46330Y+18390
X+46330Y+20930
X+46330Y+23470
X+46330Y+26010
X+83160Y+15850
X+83160Y+18390
X+83160Y+20930
X+83160Y+23470
X+3810Y+5080
X+3810Y+33655
X+25400Y+33655
X+25400Y+5080
X+9525Y+3810
X+14605Y+3810
X+12065Y+3810
X+33630Y+31090
X+36170Y+31090
X+38710Y+31090
T02
X+50140Y+48870
X+55220Y+48870
X+36170Y+21565
X+31090Y+21565
X+38735Y+37465
X+38735Y+42545
X+20930Y+49505
X+26010Y+49505
X+6960Y+49505
X+12040Y+49505
M30
