G04 PROTEUS RS274X GERBER FILE*
%FSLAX45Y45*%
%MOMM*%
G01*
%ADD17C,0.203200*%
%ADD18C,0.127000*%
%ADD19C,0.063500*%
D17*
X+7172960Y+3934460D02*
X+7172960Y+3807460D01*
X+7236460Y+3870960D02*
X+7109460Y+3870960D01*
X+7172960Y+1394460D02*
X+7172960Y+1267460D01*
X+7236460Y+1330960D02*
X+7109460Y+1330960D01*
X+7172960Y+3426460D02*
X+7172960Y+3299460D01*
X+7236460Y+3362960D02*
X+7109460Y+3362960D01*
X+7172960Y+3172460D02*
X+7172960Y+3045460D01*
X+7236460Y+3108960D02*
X+7109460Y+3108960D01*
X+7172960Y+2918460D02*
X+7172960Y+2791460D01*
X+7236460Y+2854960D02*
X+7109460Y+2854960D01*
X+7172960Y+2664460D02*
X+7172960Y+2537460D01*
X+7236460Y+2600960D02*
X+7109460Y+2600960D01*
X+7172960Y+2410460D02*
X+7172960Y+2283460D01*
X+7236460Y+2346960D02*
X+7109460Y+2346960D01*
X+7172960Y+2156460D02*
X+7172960Y+2029460D01*
X+7236460Y+2092960D02*
X+7109460Y+2092960D01*
X+7172960Y+1902460D02*
X+7172960Y+1775460D01*
X+7236460Y+1838960D02*
X+7109460Y+1838960D01*
X+7172960Y+1648460D02*
X+7172960Y+1521460D01*
X+7236460Y+1584960D02*
X+7109460Y+1584960D01*
X+5699760Y+1648460D02*
X+5699760Y+1521460D01*
X+5763260Y+1584960D02*
X+5636260Y+1584960D01*
X+5699760Y+1902460D02*
X+5699760Y+1775460D01*
X+5763260Y+1838960D02*
X+5636260Y+1838960D01*
X+5699760Y+2156460D02*
X+5699760Y+2029460D01*
X+5763260Y+2092960D02*
X+5636260Y+2092960D01*
X+5699760Y+2410460D02*
X+5699760Y+2283460D01*
X+5763260Y+2346960D02*
X+5636260Y+2346960D01*
X+5699760Y+2664460D02*
X+5699760Y+2537460D01*
X+5763260Y+2600960D02*
X+5636260Y+2600960D01*
X+5699760Y+2918460D02*
X+5699760Y+2791460D01*
X+5763260Y+2854960D02*
X+5636260Y+2854960D01*
X+5699760Y+3172460D02*
X+5699760Y+3045460D01*
X+5763260Y+3108960D02*
X+5636260Y+3108960D01*
X+5699760Y+3426460D02*
X+5699760Y+3299460D01*
X+5763260Y+3362960D02*
X+5636260Y+3362960D01*
X+5699760Y+3680460D02*
X+5699760Y+3553460D01*
X+5763260Y+3616960D02*
X+5636260Y+3616960D01*
X+5699760Y+3934460D02*
X+5699760Y+3807460D01*
X+5763260Y+3870960D02*
X+5636260Y+3870960D01*
X+5699760Y+4188460D02*
X+5699760Y+4061460D01*
X+5763260Y+4124960D02*
X+5636260Y+4124960D01*
X+7172960Y+4188460D02*
X+7172960Y+4061460D01*
X+7236460Y+4124960D02*
X+7109460Y+4124960D01*
X+5699760Y+1394460D02*
X+5699760Y+1267460D01*
X+5763260Y+1330960D02*
X+5636260Y+1330960D01*
X+7172960Y+886460D02*
X+7172960Y+759460D01*
X+7236460Y+822960D02*
X+7109460Y+822960D01*
X+7172960Y+3680460D02*
X+7172960Y+3553460D01*
X+7236460Y+3616960D02*
X+7109460Y+3616960D01*
X+5699760Y+1140460D02*
X+5699760Y+1013460D01*
X+5763260Y+1076960D02*
X+5636260Y+1076960D01*
X+7172960Y+1140460D02*
X+7172960Y+1013460D01*
X+7236460Y+1076960D02*
X+7109460Y+1076960D01*
X+5699760Y+886460D02*
X+5699760Y+759460D01*
X+5763260Y+822960D02*
X+5636260Y+822960D01*
X+5699760Y+632460D02*
X+5699760Y+505460D01*
X+5763260Y+568960D02*
X+5636260Y+568960D01*
X+7172960Y+632460D02*
X+7172960Y+505460D01*
X+7236460Y+568960D02*
X+7109460Y+568960D01*
X+4251960Y+1267460D02*
X+4251960Y+1140460D01*
X+4315460Y+1203960D02*
X+4188460Y+1203960D01*
X+4251960Y+1013460D02*
X+4251960Y+886460D01*
X+4315460Y+949960D02*
X+4188460Y+949960D01*
X+4251960Y+759460D02*
X+4251960Y+632460D01*
X+4315460Y+695960D02*
X+4188460Y+695960D01*
X+4251960Y+1521460D02*
X+4251960Y+1394460D01*
X+4315460Y+1457960D02*
X+4188460Y+1457960D01*
X+7807960Y+3172460D02*
X+7807960Y+3045460D01*
X+7871460Y+3108960D02*
X+7744460Y+3108960D01*
X+8061960Y+3172460D02*
X+8061960Y+3045460D01*
X+8125460Y+3108960D02*
X+7998460Y+3108960D01*
X+8315960Y+3172460D02*
X+8315960Y+3045460D01*
X+8379460Y+3108960D02*
X+8252460Y+3108960D01*
X+7807960Y+3426460D02*
X+7807960Y+3299460D01*
X+7871460Y+3362960D02*
X+7744460Y+3362960D01*
X+8061960Y+3426460D02*
X+8061960Y+3299460D01*
X+8125460Y+3362960D02*
X+7998460Y+3362960D01*
X+8315960Y+3426460D02*
X+8315960Y+3299460D01*
X+8379460Y+3362960D02*
X+8252460Y+3362960D01*
X+5013960Y+3934460D02*
X+5013960Y+3807460D01*
X+5077460Y+3870960D02*
X+4950460Y+3870960D01*
X+4759960Y+3934460D02*
X+4759960Y+3807460D01*
X+4823460Y+3870960D02*
X+4696460Y+3870960D01*
X+4505960Y+3934460D02*
X+4505960Y+3807460D01*
X+4569460Y+3870960D02*
X+4442460Y+3870960D01*
X+5013960Y+3680460D02*
X+5013960Y+3553460D01*
X+5077460Y+3616960D02*
X+4950460Y+3616960D01*
X+4759960Y+3680460D02*
X+4759960Y+3553460D01*
X+4823460Y+3616960D02*
X+4696460Y+3616960D01*
X+4505960Y+3680460D02*
X+4505960Y+3553460D01*
X+4569460Y+3616960D02*
X+4442460Y+3616960D01*
X+6032500Y+1905000D02*
X+6032500Y+1778000D01*
X+6096000Y+1841500D02*
X+5969000Y+1841500D01*
X+6540500Y+1905000D02*
X+6540500Y+1778000D01*
X+6604000Y+1841500D02*
X+6477000Y+1841500D01*
X+6286500Y+1905000D02*
X+6286500Y+1778000D01*
X+6350000Y+1841500D02*
X+6223000Y+1841500D01*
X+6794500Y+1905000D02*
X+6794500Y+1778000D01*
X+6858000Y+1841500D02*
X+6731000Y+1841500D01*
X+5058861Y+4931861D02*
X+4969059Y+4842059D01*
X+5058861Y+4842059D02*
X+4969059Y+4931861D01*
X+5566861Y+4931861D02*
X+5477059Y+4842059D01*
X+5566861Y+4842059D02*
X+5477059Y+4931861D01*
X+6156960Y+4442460D02*
X+6156960Y+4315460D01*
X+6220460Y+4378960D02*
X+6093460Y+4378960D01*
X+6410960Y+4442460D02*
X+6410960Y+4315460D01*
X+6474460Y+4378960D02*
X+6347460Y+4378960D01*
X+6664960Y+4442460D02*
X+6664960Y+4315460D01*
X+6728460Y+4378960D02*
X+6601460Y+4378960D01*
X+4632960Y+1902460D02*
X+4632960Y+1775460D01*
X+4696460Y+1838960D02*
X+4569460Y+1838960D01*
X+4632960Y+2156460D02*
X+4632960Y+2029460D01*
X+4696460Y+2092960D02*
X+4569460Y+2092960D01*
X+4632960Y+2410460D02*
X+4632960Y+2283460D01*
X+4696460Y+2346960D02*
X+4569460Y+2346960D01*
X+4632960Y+2664460D02*
X+4632960Y+2537460D01*
X+4696460Y+2600960D02*
X+4569460Y+2600960D01*
X+8315960Y+1648460D02*
X+8315960Y+1521460D01*
X+8379460Y+1584960D02*
X+8252460Y+1584960D01*
X+8315960Y+1902460D02*
X+8315960Y+1775460D01*
X+8379460Y+1838960D02*
X+8252460Y+1838960D01*
X+8315960Y+2156460D02*
X+8315960Y+2029460D01*
X+8379460Y+2092960D02*
X+8252460Y+2092960D01*
X+8315960Y+2410460D02*
X+8315960Y+2283460D01*
X+8379460Y+2346960D02*
X+8252460Y+2346960D01*
X+381000Y+571500D02*
X+381000Y+444500D01*
X+444500Y+508000D02*
X+317500Y+508000D01*
X+381000Y+3429000D02*
X+381000Y+3302000D01*
X+444500Y+3365500D02*
X+317500Y+3365500D01*
X+2540000Y+3429000D02*
X+2540000Y+3302000D01*
X+2603500Y+3365500D02*
X+2476500Y+3365500D01*
X+2540000Y+571500D02*
X+2540000Y+444500D01*
X+2603500Y+508000D02*
X+2476500Y+508000D01*
X+952500Y+444500D02*
X+952500Y+317500D01*
X+1016000Y+381000D02*
X+889000Y+381000D01*
X+1460500Y+444500D02*
X+1460500Y+317500D01*
X+1524000Y+381000D02*
X+1397000Y+381000D01*
X+1206500Y+444500D02*
X+1206500Y+317500D01*
X+1270000Y+381000D02*
X+1143000Y+381000D01*
X+3661861Y+2201361D02*
X+3572059Y+2111559D01*
X+3661861Y+2111559D02*
X+3572059Y+2201361D01*
X+3153861Y+2201361D02*
X+3064059Y+2111559D01*
X+3153861Y+2111559D02*
X+3064059Y+2201361D01*
X+3362960Y+3172460D02*
X+3362960Y+3045460D01*
X+3426460Y+3108960D02*
X+3299460Y+3108960D01*
X+3616960Y+3172460D02*
X+3616960Y+3045460D01*
X+3680460Y+3108960D02*
X+3553460Y+3108960D01*
X+3870960Y+3172460D02*
X+3870960Y+3045460D01*
X+3934460Y+3108960D02*
X+3807460Y+3108960D01*
X+3918401Y+3791401D02*
X+3828599Y+3701599D01*
X+3918401Y+3701599D02*
X+3828599Y+3791401D01*
X+3918401Y+4299401D02*
X+3828599Y+4209599D01*
X+3918401Y+4209599D02*
X+3828599Y+4299401D01*
X+2137861Y+4995361D02*
X+2048059Y+4905559D01*
X+2137861Y+4905559D02*
X+2048059Y+4995361D01*
X+2645861Y+4995361D02*
X+2556059Y+4905559D01*
X+2645861Y+4905559D02*
X+2556059Y+4995361D01*
X+740861Y+4995361D02*
X+651059Y+4905559D01*
X+740861Y+4905559D02*
X+651059Y+4995361D01*
X+1248861Y+4995361D02*
X+1159059Y+4905559D01*
X+1248861Y+4905559D02*
X+1159059Y+4995361D01*
X+60960Y+60960D02*
X+9077960Y+60960D01*
X+9077960Y+5458460D01*
X+60960Y+5458460D01*
X+60960Y+60960D01*
D18*
X+6446520Y-1346200D02*
X+9090660Y-1346200D01*
X+9090660Y-584200D01*
X+6446520Y-584200D01*
X+6446520Y-1346200D01*
D19*
X+8623298Y-584200D02*
X+8623298Y-1346200D01*
X+7810498Y-584200D02*
X+7810498Y-1346200D01*
X+6977378Y-584200D02*
X+6977378Y-1346200D01*
X+9090660Y-857250D02*
X+6446520Y-857250D01*
X+9090660Y-1098550D02*
X+6446520Y-1098550D01*
D18*
X+8667750Y-748030D02*
X+8682990Y-763270D01*
X+8743950Y-763270D01*
X+8759190Y-748030D01*
X+8759190Y-732790D01*
X+8743950Y-717550D01*
X+8682990Y-717550D01*
X+8667750Y-702310D01*
X+8667750Y-687070D01*
X+8682990Y-671830D01*
X+8743950Y-671830D01*
X+8759190Y-687070D01*
X+8881110Y-671830D02*
X+8789670Y-763270D01*
X+8789670Y-671830D02*
X+8835390Y-717550D01*
X+8911590Y-763270D02*
X+8911590Y-671830D01*
X+8957310Y-717550D01*
X+9003030Y-671830D01*
X+9003030Y-763270D01*
X+8078470Y-748030D02*
X+8093710Y-763270D01*
X+8154670Y-763270D01*
X+8169910Y-748030D01*
X+8169910Y-732790D01*
X+8154670Y-717550D01*
X+8093710Y-717550D01*
X+8078470Y-702310D01*
X+8078470Y-687070D01*
X+8093710Y-671830D01*
X+8154670Y-671830D01*
X+8169910Y-687070D01*
X+8215630Y-671830D02*
X+8276590Y-671830D01*
X+8246110Y-671830D02*
X+8246110Y-763270D01*
X+8215630Y-763270D02*
X+8276590Y-763270D01*
X+8322310Y-671830D02*
X+8413750Y-671830D01*
X+8322310Y-763270D01*
X+8413750Y-763270D01*
X+8535670Y-763270D02*
X+8444230Y-763270D01*
X+8444230Y-671830D01*
X+8535670Y-671830D01*
X+8444230Y-717550D02*
X+8505190Y-717550D01*
X+7021830Y-763270D02*
X+7021830Y-671830D01*
X+7098030Y-671830D01*
X+7113270Y-687070D01*
X+7113270Y-702310D01*
X+7098030Y-717550D01*
X+7021830Y-717550D01*
X+7143750Y-671830D02*
X+7143750Y-763270D01*
X+7235190Y-763270D01*
X+7265670Y-763270D02*
X+7265670Y-702310D01*
X+7296150Y-671830D01*
X+7326630Y-671830D01*
X+7357110Y-702310D01*
X+7357110Y-763270D01*
X+7265670Y-732790D02*
X+7357110Y-732790D01*
X+7387590Y-671830D02*
X+7479030Y-671830D01*
X+7433310Y-671830D02*
X+7433310Y-763270D01*
X+7600950Y-763270D02*
X+7509510Y-763270D01*
X+7509510Y-671830D01*
X+7600950Y-671830D01*
X+7509510Y-717550D02*
X+7570470Y-717550D01*
X+7631430Y-763270D02*
X+7631430Y-671830D01*
X+7692390Y-671830D01*
X+7722870Y-702310D01*
X+7722870Y-732790D01*
X+7692390Y-763270D01*
X+7631430Y-763270D01*
X+6554470Y-702310D02*
X+6584950Y-671830D01*
X+6615430Y-671830D01*
X+6645910Y-702310D01*
X+6645910Y-732790D01*
X+6615430Y-763270D01*
X+6584950Y-763270D01*
X+6554470Y-732790D01*
X+6554470Y-702310D01*
X+6615430Y-732790D02*
X+6645910Y-763270D01*
X+6676390Y-671830D02*
X+6767830Y-671830D01*
X+6722110Y-671830D02*
X+6722110Y-763270D01*
X+6889750Y-671830D02*
X+6798310Y-763270D01*
X+6798310Y-671830D02*
X+6844030Y-717550D01*
D17*
X+8844280Y-908050D02*
X+8844280Y-1035050D01*
X+8907780Y-971550D02*
X+8780780Y-971550D01*
D18*
X+7861300Y-958850D02*
X+7886700Y-933450D01*
X+7886700Y-1009650D01*
X+7975600Y-996950D02*
X+7988300Y-996950D01*
X+7988300Y-1009650D01*
X+7975600Y-1009650D01*
X+7975600Y-996950D01*
X+8039100Y-996950D02*
X+8039100Y-946150D01*
X+8051800Y-933450D01*
X+8102600Y-933450D01*
X+8115300Y-946150D01*
X+8115300Y-996950D01*
X+8102600Y-1009650D01*
X+8051800Y-1009650D01*
X+8039100Y-996950D01*
X+8039100Y-1009650D02*
X+8115300Y-933450D01*
X+8166100Y-958850D02*
X+8191500Y-933450D01*
X+8191500Y-1009650D01*
X+8318500Y-946150D02*
X+8305800Y-933450D01*
X+8267700Y-933450D01*
X+8255000Y-946150D01*
X+8255000Y-996950D01*
X+8267700Y-1009650D01*
X+8305800Y-1009650D01*
X+8318500Y-996950D01*
X+8318500Y-984250D01*
X+8305800Y-971550D01*
X+8255000Y-971550D01*
X+8343900Y-1009650D02*
X+8343900Y-958850D01*
X+8343900Y-971550D02*
X+8356600Y-958850D01*
X+8382000Y-984250D01*
X+8407400Y-958850D01*
X+8420100Y-971550D01*
X+8420100Y-1009650D01*
X+8445500Y-1009650D02*
X+8445500Y-958850D01*
X+8445500Y-971550D02*
X+8458200Y-958850D01*
X+8483600Y-984250D01*
X+8509000Y-958850D01*
X+8521700Y-971550D01*
X+8521700Y-1009650D01*
X+7493000Y-933450D02*
X+7416800Y-1009650D01*
X+7416800Y-933450D02*
X+7454900Y-971550D01*
X+7594600Y-1009650D02*
X+7518400Y-1009650D01*
X+7518400Y-933450D01*
X+7594600Y-933450D01*
X+7518400Y-971550D02*
X+7569200Y-971550D01*
X+7620000Y-996950D02*
X+7632700Y-1009650D01*
X+7683500Y-1009650D01*
X+7696200Y-996950D01*
X+7696200Y-984250D01*
X+7683500Y-971550D01*
X+7632700Y-971550D01*
X+7620000Y-958850D01*
X+7620000Y-946150D01*
X+7632700Y-933450D01*
X+7683500Y-933450D01*
X+7696200Y-946150D01*
X+6685280Y-933450D02*
X+6748780Y-933450D01*
X+6748780Y-946150D01*
X+6685280Y-1009650D01*
X+6799580Y-958850D02*
X+6824980Y-933450D01*
X+6824980Y-1009650D01*
D17*
X+8889181Y-1167949D02*
X+8799379Y-1257751D01*
X+8889181Y-1257751D02*
X+8799379Y-1167949D01*
D18*
X+7861300Y-1200150D02*
X+7886700Y-1174750D01*
X+7886700Y-1250950D01*
X+7975600Y-1238250D02*
X+7988300Y-1238250D01*
X+7988300Y-1250950D01*
X+7975600Y-1250950D01*
X+7975600Y-1238250D01*
X+8115300Y-1174750D02*
X+8051800Y-1174750D01*
X+8051800Y-1200150D01*
X+8102600Y-1200150D01*
X+8115300Y-1212850D01*
X+8115300Y-1238250D01*
X+8102600Y-1250950D01*
X+8064500Y-1250950D01*
X+8051800Y-1238250D01*
X+8153400Y-1187450D02*
X+8166100Y-1174750D01*
X+8204200Y-1174750D01*
X+8216900Y-1187450D01*
X+8216900Y-1200150D01*
X+8204200Y-1212850D01*
X+8166100Y-1212850D01*
X+8153400Y-1225550D01*
X+8153400Y-1250950D01*
X+8216900Y-1250950D01*
X+8318500Y-1225550D02*
X+8242300Y-1225550D01*
X+8293100Y-1174750D01*
X+8293100Y-1250950D01*
X+8343900Y-1250950D02*
X+8343900Y-1200150D01*
X+8343900Y-1212850D02*
X+8356600Y-1200150D01*
X+8382000Y-1225550D01*
X+8407400Y-1200150D01*
X+8420100Y-1212850D01*
X+8420100Y-1250950D01*
X+8445500Y-1250950D02*
X+8445500Y-1200150D01*
X+8445500Y-1212850D02*
X+8458200Y-1200150D01*
X+8483600Y-1225550D01*
X+8509000Y-1200150D01*
X+8521700Y-1212850D01*
X+8521700Y-1250950D01*
X+7493000Y-1174750D02*
X+7416800Y-1250950D01*
X+7416800Y-1174750D02*
X+7454900Y-1212850D01*
X+7594600Y-1250950D02*
X+7518400Y-1250950D01*
X+7518400Y-1174750D01*
X+7594600Y-1174750D01*
X+7518400Y-1212850D02*
X+7569200Y-1212850D01*
X+7620000Y-1238250D02*
X+7632700Y-1250950D01*
X+7683500Y-1250950D01*
X+7696200Y-1238250D01*
X+7696200Y-1225550D01*
X+7683500Y-1212850D01*
X+7632700Y-1212850D01*
X+7620000Y-1200150D01*
X+7620000Y-1187450D01*
X+7632700Y-1174750D01*
X+7683500Y-1174750D01*
X+7696200Y-1187450D01*
X+6697980Y-1200150D02*
X+6723380Y-1174750D01*
X+6723380Y-1250950D01*
X+6774180Y-1238250D02*
X+6774180Y-1187450D01*
X+6786880Y-1174750D01*
X+6837680Y-1174750D01*
X+6850380Y-1187450D01*
X+6850380Y-1238250D01*
X+6837680Y-1250950D01*
X+6786880Y-1250950D01*
X+6774180Y-1238250D01*
X+6774180Y-1250950D02*
X+6850380Y-1174750D01*
M02*
